<?xml version="1.0" standalone="no"?>
<!DOCTYPE svg PUBLIC "-//W3C//DTD SVG 20010904//EN"
 "http://www.w3.org/TR/2001/REC-SVG-20010904/DTD/svg10.dtd">
<svg version="1.0" xmlns="http://www.w3.org/2000/svg"
 width="238.000000pt" height="238.000000pt" viewBox="0 0 238.000000 238.000000"
 preserveAspectRatio="xMidYMid meet">
<metadata>
Created by potrace 1.14, written by Peter Selinger 2001-2017
</metadata>
<g transform="translate(0.000000,238.000000) scale(0.100000,-0.100000)"
fill="#000000" stroke="none">
<path d="M43 2329 c-31 -36 -43 -59 -43 -82 0 -30 3 -28 50 43 27 41 50 78 50
83 0 16 -17 3 -57 -44z"/>
<path d="M510 2331 c0 -30 -5 -51 -12 -54 -10 -4 -10 -6 0 -6 6 -1 12 -13 12
-28 0 -14 2 -24 5 -21 10 9 13 158 4 158 -5 0 -9 -22 -9 -49z"/>
<path d="M544 2320 l-2 -60 37 0 c20 1 47 7 61 15 17 10 42 12 82 8 73 -7 100
0 146 40 20 18 48 34 61 35 13 0 29 6 34 11 8 8 -54 11 -204 11 l-214 0 -1
-60z"/>
<path d="M1160 2323 c-6 -32 -18 -86 -26 -120 -8 -34 -14 -71 -14 -83 0 -14
-12 -25 -42 -37 -24 -10 -67 -30 -95 -45 -68 -36 -161 -71 -261 -98 l-80 -22
-50 26 c-27 14 -71 31 -98 37 -28 7 -42 15 -33 18 15 6 18 18 25 86 2 22 1 33
-2 25 -21 -57 -46 -77 -57 -47 -3 6 -4 -5 -2 -25 1 -21 -1 -35 -6 -33 -4 3 -9
0 -11 -5 -2 -6 -16 -12 -31 -14 -59 -6 -121 -94 -133 -187 -3 -30 -20 -83 -38
-119 -21 -45 -31 -79 -31 -112 0 -41 -2 -46 -13 -31 -6 9 -12 13 -12 9 0 -5
-6 -3 -14 3 -9 8 -15 8 -18 2 -1 -6 -3 33 -3 87 -1 83 -4 103 -24 139 -29 50
-56 67 -40 25 7 -18 7 -38 0 -62 -5 -19 -19 -66 -31 -104 -19 -67 -20 -92 -20
-853 l0 -783 390 0 c226 1 388 5 385 10 -3 5 -1 11 5 15 5 3 10 -1 10 -9 0
-14 67 -16 635 -16 417 0 635 3 635 10 0 6 -4 10 -9 10 -4 0 -8 29 -8 64 0 56
2 63 18 59 15 -4 18 -15 17 -54 0 -27 -5 -46 -9 -43 -5 3 -9 -2 -9 -11 0 -9 4
-13 10 -10 6 3 7 -1 4 -10 -5 -12 0 -15 24 -13 26 2 29 5 21 20 -20 38 -32
477 -15 578 3 25 14 55 24 67 16 22 17 16 16 -145 -1 -92 5 -239 13 -326 13
-145 13 -161 -1 -172 -9 -6 -16 -14 -16 -18 0 -3 54 -6 120 -6 l120 0 -1 248
0 247 -28 -95 c-36 -119 -59 -178 -116 -288 l-45 -87 -1 40 c-1 46 -4 68 -19
182 -6 45 -10 160 -10 255 0 218 0 210 18 230 21 25 51 112 62 182 5 32 10 60
12 62 2 2 26 -3 53 -11 26 -8 54 -15 62 -15 10 0 13 50 13 265 0 170 -4 265
-10 265 -5 0 -10 -7 -10 -15 0 -9 -7 -18 -15 -21 -8 -4 -15 -10 -15 -16 0 -5
4 -7 9 -3 5 3 12 1 15 -4 4 -5 -2 -12 -13 -16 -10 -3 -24 -19 -31 -36 -7 -16
-16 -31 -20 -34 -13 -8 2 44 16 56 14 11 20 49 8 49 -3 0 -13 -4 -23 -10 -17
-9 -17 -6 -4 48 26 107 27 121 9 141 -11 12 -25 17 -38 13 -14 -3 -19 -1 -16
9 2 7 18 17 35 21 44 11 83 61 83 105 0 28 -8 43 -37 71 -67 63 -265 141 -361
142 -12 0 -25 8 -29 18 -3 9 -13 25 -21 35 -14 16 -12 17 26 17 36 0 45 5 72
39 25 31 38 39 64 39 18 0 47 7 65 16 32 17 41 36 18 36 -19 0 -57 43 -57 63
0 11 5 14 18 10 14 -6 15 -4 4 9 -10 12 -9 18 3 28 12 10 15 10 15 -4 0 -10 4
-15 9 -12 5 4 17 3 26 0 12 -5 15 -17 13 -47 -2 -29 1 -41 12 -45 13 -5 13 -3
1 11 -8 10 -9 17 -3 17 6 0 15 -7 20 -16 6 -11 11 4 16 52 3 38 9 84 12 102
l6 32 -490 0 c-547 0 -497 7 -506 -66 -10 -77 -21 -111 -50 -150 -34 -47 -76
-74 -76 -49 0 23 50 218 60 237 13 24 13 28 -4 28 -10 0 -19 -20 -26 -57z
m123 -48 c-3 -9 -8 -14 -10 -11 -3 3 -2 9 2 15 9 16 15 13 8 -4z m787 0 c-14
-17 -30 -20 -30 -6 0 5 8 12 18 14 9 3 19 5 21 6 2 0 -2 -6 -9 -14z m-185 -6
c4 -6 32 -9 66 -8 32 1 62 -1 66 -4 14 -15 -133 -7 -153 8 -17 13 -17 14 -2
15 9 0 20 -5 23 -11z m335 -23 c0 -3 -4 -8 -10 -11 -5 -3 -10 -1 -10 4 0 6 5
11 10 11 6 0 10 -2 10 -4z m-554 -84 c1 -13 -5 -22 -12 -22 -8 0 -14 11 -14
26 0 31 24 28 26 -4z m34 -18 c0 -14 -4 -23 -10 -19 -5 3 -10 15 -10 26 0 10
5 19 10 19 6 0 10 -12 10 -26z m29 -31 c-1 -33 -2 -35 -8 -13 -4 14 -6 31 -3
38 8 22 12 13 11 -25z m-1246 -172 c20 -5 49 -17 64 -27 l27 -17 -24 -9 c-16
-6 -32 -5 -47 3 -13 7 -41 10 -70 6 -51 -5 -80 -30 -90 -77 -2 -14 -14 -32
-24 -38 -64 -40 -46 85 20 141 35 29 74 34 144 18z m841 -156 c41 -20 66 -63
66 -112 -1 -48 -15 -73 -64 -112 -32 -26 -48 -31 -90 -31 -42 0 -61 6 -103 35
-60 40 -75 63 -75 111 0 44 42 101 85 113 51 15 146 13 181 -4z m991 -496 c-4
-5 -13 -9 -22 -9 -13 0 -13 3 -3 15 13 15 35 11 25 -6z m-1707 -100 c50 3 134
2 138 -2 6 -6 7 -52 2 -112 -2 -32 0 -40 13 -39 12 1 20 -18 34 -74 10 -41 18
-86 18 -99 0 -13 3 -26 8 -29 14 -8 11 -67 -7 -131 -9 -32 -19 -74 -21 -93 -3
-19 -10 -40 -15 -47 -5 -7 -7 -16 -5 -20 3 -5 1 -24 -4 -43 l-9 -35 5 37 c2
21 0 38 -6 38 -12 0 -12 27 0 32 5 2 12 17 16 33 6 28 5 29 -9 11 -14 -17 -15
-15 -11 23 4 47 -8 53 -29 14 -11 -20 -15 -23 -16 -10 0 9 -8 17 -17 18 -11 0
-13 3 -5 6 14 6 16 33 2 33 -5 0 -10 5 -10 11 0 8 5 8 15 -1 8 -7 15 -19 15
-26 0 -8 6 -11 16 -7 12 4 14 14 9 46 -5 28 -4 38 4 33 6 -4 11 -15 11 -25 0
-9 8 -35 19 -56 l18 -38 -1 30 c0 17 -4 29 -9 26 -13 -8 -20 28 -9 52 7 14 7
27 2 30 -5 3 -7 12 -3 20 3 8 1 15 -5 15 -5 0 -13 -10 -16 -22 -7 -21 -9 -19
-21 17 -7 22 -13 32 -14 21 -1 -15 -4 -16 -16 -6 -8 6 -19 9 -25 5 -14 -9 -13
8 2 23 13 13 9 19 -27 37 -6 3 -5 7 3 11 17 8 15 27 -3 20 -13 -5 -14 -2 -5
15 6 11 9 28 7 37 -3 12 -5 11 -6 -5 -2 -34 -18 -28 -27 10 -5 17 -9 37 -9 42
0 6 -20 48 -43 94 -54 106 -54 117 -4 95 20 -9 43 -16 50 -15z m2 21 c-20 -13
-33 -13 -25 0 3 6 14 10 23 10 15 0 15 -2 2 -10z m443 -67 l59 -66 -5 -101
c-8 -142 -15 -173 -40 -180 -41 -11 -76 42 -82 124 -4 64 -23 151 -36 167 -9
9 -9 13 0 13 6 0 11 11 11 25 0 14 -4 25 -10 25 -5 0 -12 -11 -16 -25 -3 -14
-10 -25 -14 -25 -4 0 -11 11 -14 25 -6 24 -36 36 -36 15 0 -5 -12 -9 -27 -9
-18 1 -21 3 -10 6 10 2 16 12 15 21 -2 12 7 17 37 19 22 2 49 10 60 18 34 24
48 17 108 -52z m-176 -39 c-3 -3 -12 -4 -19 -1 -8 3 -5 6 6 6 11 1 17 -2 13
-5z m3 -24 c0 -5 -4 -10 -10 -10 -5 0 -10 5 -10 10 0 6 5 10 10 10 6 0 10 -4
10 -10z m12 -72 l-7 -23 -3 23 c-2 12 -8 22 -13 22 -5 0 -9 5 -9 10 0 7 6 7
19 0 14 -7 17 -16 13 -32z m38 3 c0 -6 -4 -13 -10 -16 -5 -3 -10 1 -10 9 0 9
5 16 10 16 6 0 10 -4 10 -9z m299 -103 c44 -69 53 -154 45 -391 l-7 -178 -23
22 c-13 13 -24 31 -24 41 0 11 -5 16 -10 13 -21 -13 -31 54 -30 205 3 210 1
240 -15 240 -8 0 -16 -12 -18 -27 -4 -26 -4 -26 -6 5 0 17 4 32 10 32 7 0 9
24 6 72 l-4 72 21 -26 c12 -14 36 -50 55 -80z m985 56 c-1 -63 -43 -182 -77
-221 -55 -63 -58 -77 -67 -368 -1 -30 -1 -30 -11 -5 -6 13 -17 33 -26 43 -11
12 -16 32 -14 59 2 49 -8 100 -19 93 -10 -6 -20 19 -20 48 0 11 10 41 22 66
27 56 35 139 16 164 -12 16 -9 24 35 68 27 27 53 46 58 43 5 -3 6 2 3 11 -6
14 -1 16 25 12 24 -4 34 -1 42 14 16 31 34 16 33 -27z m-1494 -178 c0 -2 -9
-6 -20 -9 -11 -3 -18 -1 -14 4 5 9 34 13 34 5z m-18 -221 c-2 -14 -6 -25 -8
-25 -2 0 -4 11 -4 25 0 14 4 25 9 25 4 0 6 -11 3 -25z m-37 -45 c3 -6 -1 -7
-9 -4 -18 7 -21 14 -7 14 6 0 13 -4 16 -10z m53 -20 c8 0 13 -3 9 -6 -10 -10
-48 7 -40 19 5 8 8 8 11 -1 2 -7 11 -12 20 -12z m-35 -30 c4 -15 0 -20 -16
-20 -18 0 -19 2 -7 10 8 5 11 10 7 10 -5 0 -5 5 -2 10 9 14 12 13 18 -10z m67
-10 c0 -5 -8 -10 -17 -10 -15 0 -16 2 -3 10 19 12 20 12 20 0z m25 -30 c3 -5
2 -10 -4 -10 -5 0 -13 5 -16 10 -3 6 -2 10 4 10 5 0 13 -4 16 -10z m5 -34 c0
-3 -4 -8 -10 -11 -5 -3 -10 -1 -10 4 0 6 5 11 10 11 6 0 10 -2 10 -4z m-30
-36 c0 -5 -2 -10 -4 -10 -3 0 -8 5 -11 10 -3 6 -1 10 4 10 6 0 11 -4 11 -10z
m30 -27 c0 -42 -11 -38 -16 7 -2 16 1 30 6 30 6 0 10 -16 10 -37z m-88 -18
c-2 -14 -8 -25 -13 -25 -14 0 -11 38 4 43 6 3 13 6 13 6 1 1 -1 -10 -4 -24z
m-17 -36 c11 -17 0 -20 -21 -4 -17 13 -17 14 -2 15 9 0 20 -5 23 -11z m105
-24 c0 -8 -2 -15 -4 -15 -2 0 -6 7 -10 15 -3 8 -1 15 4 15 6 0 10 -7 10 -15z
m-50 -11 c0 -8 -4 -12 -10 -9 -5 3 -10 10 -10 16 0 5 5 9 10 9 6 0 10 -7 10
-16z m-44 -9 c-11 -8 -24 -15 -30 -15 -5 0 -1 7 10 15 10 8 24 14 29 14 6 0 1
-6 -9 -14z m19 -35 c3 -5 1 -10 -4 -10 -6 0 -11 5 -11 10 0 6 2 10 4 10 3 0 8
-4 11 -10z m85 -45 c0 -3 -4 -4 -9 0 -5 3 -12 -3 -14 -12 -3 -12 -5 -8 -6 9 0
15 -5 30 -11 33 -5 3 -10 11 -10 18 0 6 11 0 25 -15 14 -15 25 -30 25 -33z
m1281 8 c-8 -15 -10 -15 -11 -2 0 17 10 32 18 25 2 -3 -1 -13 -7 -23z m-1381
7 c0 -5 -4 -10 -10 -10 -5 0 -10 5 -10 10 0 6 5 10 10 10 6 0 10 -4 10 -10z
m28 -15 c0 -13 -7 -30 -14 -36 -10 -8 -14 -8 -14 0 0 6 5 11 11 11 6 0 8 7 5
16 -5 14 0 34 8 34 2 0 4 -11 4 -25z m71 -79 c-1 -24 -3 -26 -6 -8 -2 12 -9
20 -14 17 -5 -4 -9 0 -9 8 0 7 7 14 15 14 10 0 15 -10 14 -31z"/>
<path d="M1184 1739 c-11 -6 -29 -24 -38 -40 -15 -25 -16 -35 -6 -59 13 -31
63 -60 104 -60 39 0 76 41 76 85 0 67 -70 105 -136 74z"/>
<path d="M731 1124 c0 -11 3 -14 6 -6 3 7 2 16 -1 19 -3 4 -6 -2 -5 -13z"/>
<path d="M730 950 c-9 -16 -8 -18 5 -14 8 4 15 12 15 20 0 20 -7 17 -20 -6z"/>
<path d="M760 956 c0 -9 5 -16 10 -16 6 0 10 4 10 9 0 6 -4 13 -10 16 -5 3
-10 -1 -10 -9z"/>
<path d="M767 876 c-6 -15 1 -26 15 -26 11 0 10 27 -1 34 -5 3 -11 0 -14 -8z"/>
<path d="M730 850 c0 -5 5 -10 10 -10 6 0 10 5 10 10 0 6 -4 10 -10 10 -5 0
-10 -4 -10 -10z"/>
<path d="M801 754 c0 -11 3 -14 6 -6 3 7 2 16 -1 19 -3 4 -6 -2 -5 -13z"/>
<path d="M1172 941 c0 -17 1 -31 3 -31 7 0 12 39 5 49 -4 7 -7 -1 -8 -18z"/>
<path d="M2260 2318 c0 -68 19 -121 20 -58 1 19 4 52 8 74 l7 38 22 -18 c19
-16 23 -30 24 -89 4 -156 39 -151 39 6 l0 109 -60 0 -60 0 0 -62z"/>
<path d="M2300 2326 c0 -14 4 -27 8 -30 5 -3 6 8 4 25 -5 35 -12 38 -12 5z"/>
<path d="M441 2261 c-13 -80 -13 -105 -2 -76 10 23 25 145 18 145 -2 0 -9 -31
-16 -69z"/>
<path d="M2266 2207 c3 -10 9 -15 12 -12 3 3 0 11 -7 18 -10 9 -11 8 -5 -6z"/>
<path d="M30 2155 c0 -16 -2 -17 -10 -5 -5 8 -12 12 -15 9 -3 -4 -4 -73 -3
-155 l3 -149 17 75 c24 105 31 191 19 220 -8 21 -10 22 -11 5z"/>
<path d="M412 2135 c-7 -15 -11 -30 -8 -32 7 -7 28 36 24 49 -2 6 -9 -2 -16
-17z"/>
<path d="M2283 2105 c0 -22 2 -30 4 -17 2 12 2 30 0 40 -3 9 -5 -1 -4 -23z"/>
<path d="M2361 2124 c0 -11 3 -14 6 -6 3 7 2 16 -1 19 -3 4 -6 -2 -5 -13z"/>
<path d="M2322 2025 c0 -16 2 -22 5 -12 2 9 2 23 0 30 -3 6 -5 -1 -5 -18z"/>
<path d="M360 2020 c-6 -11 -8 -20 -6 -20 3 0 10 9 16 20 6 11 8 20 6 20 -3 0
-10 -9 -16 -20z"/>
<path d="M2373 1560 c0 -30 2 -43 4 -27 2 15 2 39 0 55 -2 15 -4 2 -4 -28z"/>
</g>
</svg>
